<?xml version="1.0" standalone="no"?>
<!DOCTYPE svg PUBLIC "-//W3C//DTD SVG 20010904//EN"
 "http://www.w3.org/TR/2001/REC-SVG-20010904/DTD/svg10.dtd">
<svg version="1.0" xmlns="http://www.w3.org/2000/svg"
 width="928.000000pt" height="269.000000pt" viewBox="0 0 928.000000 269.000000"
 preserveAspectRatio="xMidYMid meet">

<g transform="translate(0.000000,269.000000) scale(0.100000,-0.100000)"
fill="#000000" stroke="none">
<path d="M0 2474 l0 -216 43 -52 c23 -28 45 -55 50 -61 94 -123 181 -224 189
-218 7 3 8 1 4 -6 -9 -14 42 -78 58 -73 6 2 8 0 4 -4 -4 -4 7 -25 25 -48 40
-51 43 -55 68 -89 11 -15 25 -24 31 -21 6 4 8 2 5 -4 -8 -12 138 -194 148
-184 4 4 5 2 4 -3 -6 -18 21 -56 34 -49 7 4 9 4 5 -1 -6 -7 29 -60 67 -101 5
-6 37 -46 70 -89 33 -42 70 -89 83 -103 12 -15 48 -59 79 -99 63 -80 61 -80
131 -15 24 22 60 52 80 66 59 41 113 94 102 101 -22 13 -250 342 -250 360 0 4
-9 19 -19 34 -67 94 -208 426 -226 534 -3 18 -11 50 -17 72 -18 63 -14 349 6
410 9 28 16 56 16 63 0 9 -86 12 -395 12 l-395 0 0 -216z"/>
<path d="M1131 2627 c-48 -275 78 -681 297 -955 l18 -23 13 68 c31 161 86 288
173 399 82 103 216 199 349 252 123 49 358 58 478 17 75 -25 71 -33 71 145 l0
160 -694 0 -694 0 -11 -63z"/>
<path d="M3260 2673 c58 -38 128 -121 151 -179 l24 -59 3 -975 c2 -673 -1
-995 -8 -1039 -18 -107 -58 -172 -150 -243 l-35 -28 428 0 c475 0 716 11 884
40 222 39 386 122 529 265 98 100 163 220 190 355 30 150 4 322 -68 449 -85
150 -273 286 -469 340 -31 9 -58 20 -60 24 -2 5 19 16 46 25 168 57 277 192
311 384 49 282 -113 511 -426 601 -170 49 -285 57 -853 56 -488 0 -520 -1
-497 -16z m1045 -234 c237 -56 361 -229 325 -454 -21 -132 -75 -212 -180 -264
-101 -51 -137 -56 -388 -56 l-233 0 0 388 c1 213 1 392 1 398 0 15 404 5 475
-12z m142 -1038 c217 -55 363 -182 409 -356 17 -64 17 -194 0 -266 -47 -202
-248 -338 -546 -369 -143 -15 -477 -13 -481 3 -2 6 -3 239 -1 516 l2 503 268
-5 c228 -4 279 -8 349 -26z"/>
<path d="M5668 2623 c52 -51 75 -83 93 -128 l24 -60 3 -990 c3 -1024 2 -1057
-38 -1149 -19 -44 -72 -105 -125 -144 l-30 -21 330 -1 330 0 -62 58 c-74 68
-109 138 -123 243 -12 92 -13 1659 -1 1659 4 0 26 -24 48 -52 157 -210 519
-694 668 -893 449 -605 477 -639 649 -809 121 -119 237 -217 331 -280 l70 -47
5 1203 c5 1099 7 1207 22 1253 26 77 72 141 130 182 l52 38 -167 3 c-92 1
-242 1 -333 0 l-167 -3 55 -43 c29 -24 66 -63 81 -86 56 -90 56 -89 59 -973 2
-446 -1 -815 -6 -820 -4 -4 -15 2 -23 14 -8 12 -83 114 -166 226 -153 204
-793 1067 -1056 1422 -77 105 -148 207 -158 227 l-18 38 -273 0 -274 0 70 -67z"/>
<path d="M8515 2667 c99 -73 149 -155 165 -268 13 -91 13 -1907 -1 -1988 -15
-97 -51 -162 -122 -226 l-62 -55 394 0 395 0 -47 29 c-54 35 -106 103 -133
175 -18 49 -19 93 -19 1076 l0 1025 22 60 c22 59 85 132 153 177 24 16 3 17
-375 17 l-400 0 30 -22z"/>
<path d="M2003 2134 c-39 -6 -95 -25 -124 -40 -82 -44 -174 -140 -211 -221
-29 -62 -32 -77 -32 -173 -1 -125 11 -171 76 -301 55 -111 125 -207 218 -300
119 -119 221 -182 346 -214 79 -19 105 -19 184 3 l65 19 3 503 2 504 -32 33
c-66 68 -201 152 -283 177 -57 17 -146 21 -212 10z"/>
<path d="M0 938 c0 -428 3 -778 6 -778 5 0 77 57 279 221 50 40 95 77 100 81
100 80 195 158 213 178 13 14 27 25 32 25 8 0 130 96 130 102 0 7 -281 357
-300 373 -9 9 -19 20 -21 26 -11 27 -272 343 -280 338 -5 -3 -6 1 -4 8 3 8 -5
23 -17 35 -13 12 -39 43 -58 68 -19 26 -45 59 -57 74 l-22 26 -1 -777z"/>
<path d="M1367 1029 c-15 -11 -24 -26 -21 -31 4 -6 3 -8 -3 -5 -8 5 -66 -37
-177 -128 -31 -26 -31 -25 16 -80 9 -11 60 -74 113 -140 218 -274 342 -357
502 -341 83 9 83 -3 3 -64 -25 -19 -56 -44 -69 -57 l-24 -23 412 0 411 0 0
284 0 285 -37 -16 c-21 -8 -49 -21 -63 -28 -43 -22 -181 -46 -265 -46 -156 0
-307 48 -456 147 -46 31 -91 62 -100 70 -9 8 -19 11 -24 7 -4 -5 -5 -3 -2 3 8
13 -82 91 -98 86 -5 -2 -7 0 -2 4 7 7 -70 94 -83 94 -3 0 -17 -10 -33 -21z"/>
<path d="M820 584 c-30 -25 -72 -58 -92 -73 -20 -16 -56 -44 -80 -64 -64 -53
-147 -119 -177 -141 -14 -11 -51 -41 -81 -66 -30 -26 -66 -54 -80 -63 -23 -16
2 -17 444 -17 l468 0 -32 58 c-26 45 -147 204 -300 393 -14 17 -18 16 -70 -27z"/>
</g>
</svg>
